#!OML:ASF F:\VICON\USERDATA\INSTALL\rory3\rory3.ASF
:FULLY-SPECIFIED
:DEGREES
937
root 0.445768 18.133 3.50635 360.245 0.125929 1.39935
lowerback 6.21841 0.77713 -1.88871
upperback -0.595366 0.889107 -0.0872899
thorax -4.13212 0.482521 0.883976
lowerneck -21.7991 -6.46375 -12.7699
upperneck 28.8163 -7.93615 9.85115
head 14.5449 -3.50418 4.68968
rclavicle -1.65302e-014 9.24349e-015
rhumerus -37.1241 -11.5741 -81.2263
rradius 31.5196
rwrist 6.56327
rhand -14.5067 8.7855
rfingers 7.12502
rthumb 11.6405 -20.8712
lclavicle -1.65302e-014 9.24349e-015
lhumerus -38.6278 6.26818 83.5902
lradius 34.5286
lwrist -4.95507
lhand -17.5451 24.9464
lfingers 7.12502
lthumb 8.70931 54.7467
rfemur -2.27179 -0.370439 21.3419
rtibia 21.4277
rfoot -14.3406 -7.44324
rtoes 1.15779
lfemur 0.350528 -4.06003 -23.1712
ltibia 11.6992
lfoot -6.93569 -2.40285
ltoes -3.41463
938
root 0.444953 18.1331 3.5073 360.291 0.0720007 1.42174
lowerback 6.17825 0.777195 -1.92881
upperback -0.580931 0.887363 -0.0841086
thorax -4.09515 0.482204 0.910564
lowerneck -21.9368 -6.45105 -12.6731
upperneck 28.845 -7.91753 9.79011
head 14.5761 -3.48992 4.65079
rclavicle 1.22843e-014 8.34896e-015
rhumerus -36.9917 -11.6555 -81.1996
rradius 31.3228
rwrist 6.65441
rhand -14.4386 8.68596
rfingers 7.12502
rthumb 11.7062 -20.967
lclavicle 1.22843e-014 8.34896e-015
lhumerus -38.5609 6.1833 83.5646
lradius 34.5499
lwrist -4.8358
lhand -17.8482 24.5287
lfingers 7.12502
lthumb 8.41684 54.341
rfemur -2.31577 -0.328362 21.3204
rtibia 21.4119
rfoot -14.3369 -7.44488
rtoes 1.25742
lfemur 0.301368 -4.0447 -23.1882
ltibia 11.7122
lfoot -6.94519 -2.41471
ltoes -3.11011
939
root 0.444279 18.1316 3.50862 360.282 -0.00892519 1.35018
lowerback 6.20547 0.789195 -1.85483
upperback -0.581316 0.908799 -0.072467
thorax -4.1105 0.491439 0.87864
lowerneck -22.0234 -6.44132 -12.5625
upperneck 28.8709 -7.91606 9.72991
head 14.5967 -3.48276 4.60669
rclavicle -1.10232e-014 1.78906e-015
rhumerus -36.9479 -11.7074 -81.1978
rradius 31.178
rwrist 6.64083
rhand -14.5814 8.77424
rfingers 7.12502
rthumb 11.5684 -20.8865
lclavicle -1.10232e-014 1.78906e-015
lhumerus -38.5431 6.00267 83.5244
lradius 34.6032
lwrist -4.67465
lhand -17.6402 24.847
lfingers 7.12502
lthumb 8.61761 54.6511
rfemur -2.29374 -0.284346 21.3968
rtibia 21.382
rfoot -14.3126 -7.39758
rtoes 1.39254
lfemur 0.308813 -4.0268 -23.1042
ltibia 11.7446
lfoot -6.95714 -2.42534
ltoes -2.7783
940
root 0.442245 18.1326 3.50909 360.3 -0.100062 1.25212
lowerback 6.2104 0.789732 -1.78455
upperback -0.590899 0.9162 -0.0342499
thorax -4.1229 0.494131 0.877838
lowerneck -22.0734 -6.42037 -12.5069
upperneck 28.8741 -7.89452 9.71248
head 14.6017 -3.46835 4.59379
rclavicle -1.32471e-014 -2.5842e-015
rhumerus -36.9249 -11.7315 -81.1781
rradius 31.0817
rwrist 6.5972
rhand -14.6321 8.88616
rfingers 7.12502
rthumb 11.5196 -20.7773
lclavicle -1.32471e-014 -2.5842e-015
lhumerus -38.564 5.91291 83.4765
lradius 34.6471
lwrist -4.44519
lhand -17.2812 24.9984
lfingers 7.12502
lthumb 8.96398 54.7879
rfemur -2.29191 -0.174056 21.5217
rtibia 21.3321
rfoot -14.2826 -7.41503
rtoes 1.51548
lfemur 0.273737 -4.00408 -22.9892
ltibia 11.8
lfoot -6.97872 -2.39023
ltoes -2.73764
941
root 0.440094 18.1343 3.50727 360.359 -0.183142 1.20129
lowerback 6.20895 0.781216 -1.77024
upperback -0.620166 0.907223 0.00300111
thorax -4.15259 0.490199 0.90898
lowerneck -22.0964 -6.39755 -12.5319
upperneck 28.8513 -7.85113 9.72687
head 14.5922 -3.44998 4.61192
rclavicle 1.13369e-014 1.39149e-015
rhumerus -36.9476 -11.7398 -81.1476
rradius 31.069
rwrist 6.62362
rhand -14.5825 8.95194
rfingers 7.12502
rthumb 11.5674 -20.7088
lclavicle 1.13369e-014 1.39149e-015
lhumerus -38.6703 5.94802 83.3826
lradius 34.749
lwrist -4.36272
lhand -17.2005 24.5326
lfingers 7.12502
lthumb 9.04192 54.3188
rfemur -2.34873 -0.0719458 21.5931
rtibia 21.2844
rfoot -14.2397 -7.42526
rtoes 1.59982
lfemur 0.180079 -3.94718 -22.9187
ltibia 11.8579
lfoot -7.02066 -2.33332
ltoes -3.03548
942
root 0.439511 18.1363 3.5075 360.406 -0.246119 1.12449
lowerback 6.21429 0.751082 -1.73441
upperback -0.652029 0.87176 0.0602001
thorax -4.18797 0.472935 0.951183
lowerneck -22.0461 -6.34249 -12.5388
upperneck 28.7535 -7.75915 9.70941
head 14.5233 -3.41435 4.62057
rclavicle 1.29427e-014 -6.36111e-015
rhumerus -36.9435 -11.6972 -81.1109
rradius 31.0079
rwrist 6.66693
rhand -14.6006 9.1685
rfingers 7.12502
rthumb 11.55 -20.4932
lclavicle 1.29427e-014 -6.36111e-015
lhumerus -38.8258 6.02233 83.2761
lradius 34.8809
lwrist -4.47274
lhand -17.3812 24.4942
lfingers 7.12502
lthumb 8.86751 54.2879
rfemur -2.3907 -0.0264751 21.6814
rtibia 21.2543
rfoot -14.2053 -7.42584
rtoes 1.40479
lfemur 0.132771 -3.90913 -22.8312
ltibia 11.8691
lfoot -7.03737 -2.2744
ltoes -3.08306
943
root 0.439361 18.1375 3.50659 360.436 -0.274574 1.09964
lowerback 6.2535 0.716001 -1.73105
upperback -0.672386 0.825669 0.0929862
thorax -4.23029 0.450831 0.987156
lowerneck -22.0274 -6.31357 -12.5754
upperneck 28.6939 -7.70351 9.72051
head 14.487 -3.39324 4.64047
rclavicle -1.50921e-014 1.28216e-014
rhumerus -36.9433 -11.6702 -81.0957
rradius 30.9949
rwrist 6.74977
rhand -14.508 9.19079
rfingers 7.12502
rthumb 11.6393 -20.4659
lclavicle -1.50921e-014 1.28216e-014
lhumerus -38.9433 6.12514 83.1701
lradius 35.0198
lwrist -4.60732
lhand -17.5348 24.9849
lfingers 7.12502
lthumb 8.71931 54.7848
rfemur -2.43641 -0.0439869 21.7084
rtibia 21.2518
rfoot -14.1716 -7.39483
rtoes 1.39054
lfemur 0.10299 -3.90913 -22.7976
ltibia 11.8513
lfoot -7.01632 -2.27655
ltoes -2.98992
944
root 0.437998 18.1392 3.50527 360.471 -0.310594 1.12344
lowerback 6.28675 0.685892 -1.78704
upperback -0.694193 0.780937 0.106482
thorax -4.27135 0.43058 1.03649
lowerneck -22.1067 -6.32217 -12.6678
upperneck 28.7731 -7.70411 9.799
head 14.5486 -3.39225 4.69258
rclavicle 1.18432e-014 -1.15295e-014
rhumerus -36.9338 -11.6226 -81.1097
rradius 30.9955
rwrist 6.80292
rhand -14.4114 9.25988
rfingers 7.12502
rthumb 11.7324 -20.3916
lclavicle 1.18432e-014 -1.15295e-014
lhumerus -38.9854 6.142 83.1025
lradius 35.0533
lwrist -4.50887
lhand -17.6083 25.1808
lfingers 7.12502
lthumb 8.64835 54.9836
rfemur -2.48577 0.0306105 21.6962
rtibia 21.2578
rfoot -14.1571 -7.40705
rtoes 1.49501
lfemur 0.0703647 -3.906 -22.8149
ltibia 11.8169
lfoot -6.97608 -2.2875
ltoes -2.97679
945
root 0.437155 18.1377 3.50608 360.453 -0.324299 1.17246
lowerback 6.34204 0.648335 -1.88887
upperback -0.706964 0.722856 0.133702
thorax -4.31574 0.404971 1.12705
lowerneck -22.1533 -6.32001 -12.7886
upperneck 28.8341 -7.68459 9.88967
head 14.5943 -3.385 4.75857
rclavicle -1.87914e-014 2.5842e-015
rhumerus -36.9071 -11.5604 -81.1056
rradius 30.9595
rwrist 6.83218
rhand -14.4294 9.37072
rfingers 7.12502
rthumb 11.715 -20.2817
lclavicle -1.87914e-014 2.5842e-015
lhumerus -38.972 6.1873 83.0338
lradius 34.959
lwrist -4.36967
lhand -17.6363 24.6926
lfingers 7.12502
lthumb 8.62136 54.4966
rfemur -2.4685 0.073036 21.6513
rtibia 21.2831
rfoot -14.1789 -7.45582
rtoes 1.59521
lfemur 0.130193 -3.9275 -22.8658
ltibia 11.7437
lfoot -6.91686 -2.3271
ltoes -2.55318
946
root 0.436454 18.1361 3.50843 360.431 -0.313176 1.21909
lowerback 6.32862 0.616969 -1.96313
upperback -0.656845 0.676262 0.139689
thorax -4.25551 0.382783 1.18003
lowerneck -22.2079 -6.32211 -12.8577
upperneck 28.8075 -7.67832 9.9678
head 14.6012 -3.37798 4.8037
rclavicle 1.46231e-014 -3.08116e-015
rhumerus -36.8111 -11.5951 -81.1198
rradius 30.9751
rwrist 6.7894
rhand -14.4857 9.30978
rfingers 7.12502
rthumb 11.6607 -20.3457
lclavicle 1.46231e-014 -3.08116e-015
lhumerus -38.8273 6.40572 82.8687
lradius 34.8019
lwrist -4.56693
lhand -17.3702 24.4044
lfingers 7.12502
lthumb 8.8781 54.1977
rfemur -2.43732 0.100677 21.6028
rtibia 21.31
rfoot -14.2078 -7.49466
rtoes 1.89143
lfemur 0.207644 -3.86601 -22.9148
ltibia 11.6519
lfoot -6.88584 -2.42209
ltoes -2.55092
